<svg xmlns="http://www.w3.org/2000/svg" data-name="Layer 1" viewBox="0 0 64 64" id="search-file"><polygon fill="#5bc4ed" points="49 55 49 61 10 61 10 9 16 9 16 55 49 55"></polygon><polygon fill="#ffeea6" points="45 3 54 11 54 55 16 55 16 3 45 3"></polygon><polygon fill="#f7b733" points="54 11 45 11 45 3 54 11"></polygon><path fill="#49494b" d="M40.31,41.24l10.24,11.7c.31,.36,.68,.62,1.08,.8,1.25,.55,2.77,.24,3.69-.9,.46-.57,.68-1.26,.68-1.95,0-.76-.28-1.52-.83-2.12l-1.17-1.26-9.18-9.89"></path><circle cx="34" cy="28.74" r="14" fill="#8e8e90"></circle><circle cx="34" cy="28.74" r="11" fill="#fce8d8"></circle><path d="M37 47c0-.55-.45-1-1-1H20c-.55 0-1 .45-1 1s.45 1 1 1h16c.55 0 1-.45 1-1zM42 50H24c-.55 0-1 .45-1 1s.45 1 1 1h18c.55 0 1-.45 1-1s-.45-1-1-1zM24 12h16c.55 0 1-.45 1-1s-.45-1-1-1H24c-.55 0-1 .45-1 1s.45 1 1 1zM34 16.74c-6.62 0-12 5.38-12 12s5.38 12 12 12 12-5.38 12-12-5.38-12-12-12zm0 22c-5.51 0-10-4.49-10-10s4.49-10 10-10 10 4.49 10 10-4.49 10-10 10z"></path><path d="M30 25.74h8c.55 0 1-.45 1-1s-.45-1-1-1h-8c-.55 0-1 .45-1 1s.45 1 1 1zM39 31.74h-10c-.55 0-1 .45-1 1s.45 1 1 1h10c.55 0 1-.45 1-1s-.45-1-1-1zM42 27.74H26c-.55 0-1 .45-1 1s.45 1 1 1h16c.55 0 1-.45 1-1s-.45-1-1-1z"></path><path d="M55,47.11V11c0-.29-.12-.56-.34-.75L45.66,2.25c-.18-.16-.42-.25-.66-.25H16c-.55,0-1,.45-1,1v5h-5c-.55,0-1,.45-1,1V61c0,.55,.45,1,1,1H49c.55,0,1-.45,1-1v-5h4c.55,0,1-.45,1-1v-.61c.41-.24,.79-.54,1.1-.92,.58-.72,.9-1.64,.9-2.58,0-1.03-.39-2.03-1.1-2.8l-.9-.97ZM46,5.23l5.37,4.77h-5.37V5.23Zm-29-1.23h27v7c0,.55,.45,1,1,1h8V44.96l-6.88-7.42c1.8-2.48,2.88-5.51,2.88-8.81,0-8.27-6.73-15-15-15s-15,6.73-15,15,6.73,15,15,15c2.15,0,4.19-.46,6.05-1.28l9.75,11.14c.13,.15,.29,.28,.44,.41H17V4Zm17,37.74c-7.17,0-13-5.83-13-13s5.83-13,13-13,13,5.83,13,13-5.83,13-13,13Zm14,18.26H11V10h4V55c0,.55,.45,1,1,1H48v4Zm6.54-7.79c-.6,.75-1.63,1-2.5,.62-.29-.13-.54-.31-.74-.55l-9.44-10.79c1.09-.67,2.09-1.48,2.97-2.4l9.61,10.35c.37,.4,.57,.91,.57,1.44,0,.49-.16,.95-.46,1.32Z"></path></svg>