<svg xmlns="http://www.w3.org/2000/svg" viewBox="0 0 24 24" id="home"><path fill="#303C42" d="M23.828 11.122L21 8.663V3.5a.5.5 0 0 0-.5-.5h-3a.5.5 0 0 0-.5.5v1.685l-4.672-4.063a.501.501 0 0 0-.656 0l-11.5 10A.5.5 0 0 0 .1 11.8l1.5 2a.5.5 0 0 0 .734.071L3 13.273V22.5a.5.5 0 0 0 .5.5h5a.5.5 0 0 0 .5-.5V14h6v8.5a.5.5 0 0 0 .5.5h5a.5.5 0 0 0 .5-.5v-9.227l.666.598a.5.5 0 0 0 .734-.071l1.5-2a.5.5 0 0 0-.072-.678z"></path><path fill="#E53935" d="M18 4h2v3.794l-2-1.74z"></path><path fill="#D7CCC8" d="M20 22h-4v-8.5a.5.5 0 0 0-.5-.5h-7a.5.5 0 0 0-.5.5V22H4v-9.628l8-7.2 8 7.2V22z"></path><path fill="#E53935" d="M21.928 12.763l-9.594-8.635a.5.5 0 0 0-.668 0l-9.594 8.635-.893-1.19L12 2.162l10.82 9.41-.892 1.19z"></path><linearGradient id="a" x1="7.468" x2="20.282" y1="8.904" y2="21.718" gradientUnits="userSpaceOnUse"><stop offset="0" stop-opacity=".1"></stop><stop offset="1" stop-opacity="0"></stop></linearGradient><path fill="url(#a)" d="M16 13.5V22h4v-9.628l-8-7.2-8 7.2V14.5l4 4v-5a.5.5 0 0 1 .5-.5h7a.5.5 0 0 1 .5.5z"></path><linearGradient id="b" x1="1.526" x2="23.074" y1="8.116" y2="18.164" gradientUnits="userSpaceOnUse"><stop offset="0" stop-color="#FFF" stop-opacity=".2"></stop><stop offset="1" stop-color="#FFF" stop-opacity="0"></stop></linearGradient><path fill="url(#b)" d="M23.828 11.122L21 8.663V3.5a.5.5 0 0 0-.5-.5h-3a.5.5 0 0 0-.5.5v1.685l-4.672-4.063a.501.501 0 0 0-.656 0l-11.5 10A.5.5 0 0 0 .1 11.8l1.5 2a.5.5 0 0 0 .734.071L3 13.273V22.5a.5.5 0 0 0 .5.5h5a.5.5 0 0 0 .5-.5V14h6v8.5a.5.5 0 0 0 .5.5h5a.5.5 0 0 0 .5-.5v-9.227l.666.598a.5.5 0 0 0 .734-.071l1.5-2a.5.5 0 0 0-.072-.678z"></path></svg>